<?xml version="1.0" encoding="UTF-8"?>
<svg version="1.1" xmlns="http://www.w3.org/2000/svg" width="32" height="32">
<path d="M0 0 C10.56 0 21.12 0 32 0 C32 10.56 32 21.12 32 32 C21.44 32 10.88 32 0 32 C0 21.44 0 10.88 0 0 Z " fill="#229DEE" transform="translate(0,0)"/>
<path d="M0 0 C1.7325 0.1546875 1.7325 0.1546875 3.5 0.3125 C6.10956574 4.22684861 5.34490082 5.78075926 4.5 10.3125 C4.314375 11.446875 4.12875 12.58125 3.9375 13.75 C3.7209375 15.0184375 3.7209375 15.0184375 3.5 16.3125 C4.16 16.3125 4.82 16.3125 5.5 16.3125 C5.5 15.6525 5.5 14.9925 5.5 14.3125 C6.16 14.3125 6.82 14.3125 7.5 14.3125 C6.84 15.9625 6.18 17.6125 5.5 19.3125 C3.19 19.6425 0.88 19.9725 -1.5 20.3125 C-1.5 18.0025 -1.5 15.6925 -1.5 13.3125 C-3.15 12.9825 -4.8 12.6525 -6.5 12.3125 C-6.5 14.6225 -6.5 16.9325 -6.5 19.3125 C-8.48 20.3025 -8.48 20.3025 -10.5 21.3125 C-10.83 20.9825 -11.16 20.6525 -11.5 20.3125 C-11.32364548 17.62167128 -10.88164079 14.98398554 -10.5 12.3125 C-11.82 11.9825 -13.14 11.6525 -14.5 11.3125 C-13.7575 10.94125 -13.015 10.57 -12.25 10.1875 C-9.01096566 7.9790675 -7.54339576 5.62421037 -5.5 2.3125 C-3.5 0.3125 -3.5 0.3125 0 0 Z " fill="#EBF6FD" transform="translate(19.5,5.6875)"/>
<path d="M0 0 C0.99 0 1.98 0 3 0 C3 1.98 3 3.96 3 6 C1.02 6 -0.96 6 -3 6 C-2.42655063 3.13275314 -2.1385485 2.1385485 0 0 Z " fill="#35A5EF" transform="translate(17,9)"/>
</svg>
